<?xml version="1.0" encoding="UTF-8" standalone="no"?>
<!-- Creator: CorelDRAW X7 -->

<svg
   xmlns:dc="http://purl.org/dc/elements/1.1/"
   xmlns:cc="http://creativecommons.org/ns#"
   xmlns:rdf="http://www.w3.org/1999/02/22-rdf-syntax-ns#"
   xmlns:svg="http://www.w3.org/2000/svg"
   xmlns="http://www.w3.org/2000/svg"
   xmlns:sodipodi="http://sodipodi.sourceforge.net/DTD/sodipodi-0.dtd"
   xmlns:inkscape="http://www.inkscape.org/namespaces/inkscape"
   xml:space="preserve"
   width="100px"
   height="100px"
   version="1.1"
   style="shape-rendering:geometricPrecision; text-rendering:geometricPrecision; image-rendering:optimizeQuality; fill-rule:evenodd; clip-rule:evenodd"
   viewBox="0 0 100 141"
   id="svg22"
   sodipodi:docname="chinese_logo.svg"
   inkscape:version="0.92.4 (unknown)"><metadata
   id="metadata26"><rdf:RDF><cc:Work
       rdf:about=""><dc:format>image/svg+xml</dc:format><dc:type
         rdf:resource="http://purl.org/dc/dcmitype/StillImage" /></cc:Work></rdf:RDF></metadata><sodipodi:namedview
   pagecolor="#ffffff"
   bordercolor="#666666"
   borderopacity="1"
   objecttolerance="10"
   gridtolerance="10"
   guidetolerance="10"
   inkscape:pageopacity="0"
   inkscape:pageshadow="2"
   inkscape:window-width="1366"
   inkscape:window-height="713"
   id="namedview24"
   showgrid="false"
   inkscape:zoom="2.36"
   inkscape:cx="50"
   inkscape:cy="50"
   inkscape:window-x="0"
   inkscape:window-y="27"
   inkscape:window-maximized="1"
   inkscape:current-layer="svg22" />
 <defs
   id="defs4">
  <style
   type="text/css"
   id="style2">
   <![CDATA[
    .str0 {stroke:#00A2E9;stroke-width:1.3468;stroke-linecap:round}
    .str2 {stroke:#00A2E9;stroke-width:1.17845;stroke-linecap:round}
    .str1 {stroke:#00A2E9;stroke-width:1.0101;stroke-dasharray:2.020202 3.030303}
    .fil0 {fill:none}
    .fil1 {fill:#C9CACA;fill-opacity:0.149020}
   ]]>
  </style>
 </defs>
 <g
   id="图层_x0020_1"
   transform="matrix(5.27412,0,0,5.27412,-234.38723,-217.75033)">
  <metadata
   id="CorelCorpID_0Corel-Layer" />
  <g
   id="_2567972744144">
   <line
   class="fil0 str0"
   x1="49"
   y1="45"
   x2="46"
   y2="62"
   id="line7"
   style="fill:none;stroke:#00a2e9;stroke-width:1.34679997;stroke-linecap:round" />
   <line
   class="fil0 str0"
   x1="59"
   y1="45"
   x2="62"
   y2="63"
   id="line9"
   style="fill:none;stroke:#00a2e9;stroke-width:1.34679997;stroke-linecap:round" />
  </g>
  <line
   class="fil0 str1"
   x1="54"
   y1="45"
   x2="54"
   y2="58"
   id="line12"
   style="fill:none;stroke:#00a2e9;stroke-width:1.01010001;stroke-dasharray:2.020202, 3.030303" />
  <g
   id="_2567972742544">
   <path
   class="fil0 str2"
   d="m 48,60 c 1,0 1,1 2,1 1,0 1,-1 2,-1 1,0 1,1 2,1 1,0 2,-1 2,-1 1,0 2,1 2,1 1,0 2,-1 2,-1"
   id="path14"
   inkscape:connector-curvature="0"
   style="fill:none;stroke:#00a2e9;stroke-width:1.17844999;stroke-linecap:round" />
   <path
   class="fil0 str2"
   d="m 50,63 c 1,0 1,1 1,1 1,0 1,-1 2,-1 0,0 1,1 1,1 0,0 1,-1 1,-1 1,0 1,1 2,1 0,0 1,-1 1,-1"
   id="path16"
   inkscape:connector-curvature="0"
   style="fill:none;stroke:#00a2e9;stroke-width:1.17844999;stroke-linecap:round" />
  </g>
  <path
   class="fil1"
   d="m 54,42 c 7,0 13,6 13,13 0,7 -6,12 -13,12 -7,0 -13,-5 -13,-12 0,-7 6,-13 13,-13 z"
   id="path19"
   inkscape:connector-curvature="0"
   style="fill:#c9caca;fill-opacity:0.14902003" />
 </g>
</svg>